<?xml version="1.0" encoding="UTF-8" standalone="no"?><!DOCTYPE svg PUBLIC "-//W3C//DTD SVG 1.1//EN" "http://www.w3.org/Graphics/SVG/1.1/DTD/svg11.dtd"><svg width="100%" height="100%" viewBox="0 0 2409 1605" version="1.1" xmlns="http://www.w3.org/2000/svg" xmlns:xlink="http://www.w3.org/1999/xlink" xml:space="preserve" xmlns:serif="http://www.serif.com/" style="fill-rule:evenodd;clip-rule:evenodd;stroke-linejoin:round;stroke-miterlimit:2;"><g><g><g><path id="c" d="M2408.33,108.333c0,-59.79 -48.542,-108.333 -108.333,-108.333l-2191.67,0c-59.79,0 -108.333,48.543 -108.333,108.333l-0,1387.5c-0,59.791 48.543,108.334 108.333,108.334l2191.67,-0c59.791,-0 108.333,-48.543 108.333,-108.334l0,-1387.5Z"/><path id="c1" serif:id="c" d="M2408.33,108.333c0,-59.79 -48.542,-108.333 -108.333,-108.333l-2191.67,0c-59.79,0 -108.333,48.543 -108.333,108.333l-0,1387.5c-0,59.791 48.543,108.334 108.333,108.334l2191.67,-0c59.791,-0 108.333,-48.543 108.333,-108.334l0,-1387.5Z" style="fill:#777;"/></g><g><path d="M2189.55,88.763c0,-11.499 -9.335,-20.834 -20.833,-20.834l-1922.76,0c-11.498,0 -20.833,9.335 -20.833,20.834l0,1412.5c0,11.499 9.335,20.834 20.833,20.834l1922.76,-0c11.498,-0 20.833,-9.335 20.833,-20.834l0,-1412.5Z" style="fill:#2a2a2a;fill-opacity:0.1;"/><path d="M2400.96,112.5c0,-57.491 -46.675,-104.167 -104.166,-104.167l-2184.29,0c-57.491,0 -104.167,46.676 -104.167,104.167l0,1382.77c0,57.491 46.676,104.167 104.167,104.167l2184.29,-0c57.491,-0 104.166,-46.676 104.166,-104.167l0,-1382.77Zm-80,1.262c0,-18.397 -14.936,-33.333 -33.333,-33.333l-2166.67,0c-18.397,0 -33.333,14.936 -33.333,33.333l-0,1375c-0,18.397 14.936,33.333 33.333,33.333l2166.67,-0c18.397,-0 33.333,-14.936 33.333,-33.333l0,-1375Z" style="fill:url(#_Linear1);"/><path id="e" d="M2320.96,113.762c0,-18.397 -14.936,-33.333 -33.333,-33.333l-2166.67,0c-18.397,0 -33.333,14.936 -33.333,33.333l-0,1375c-0,18.397 14.936,33.333 33.333,33.333l2166.67,-0c18.397,-0 33.333,-14.936 33.333,-33.333l0,-1375Z" style="fill:#e8eaf6;"/><clipPath id="_clip2"><path id="e1" serif:id="e" d="M2320.96,113.762c0,-18.397 -14.936,-33.333 -33.333,-33.333l-2166.67,0c-18.397,0 -33.333,14.936 -33.333,33.333l-0,1375c-0,18.397 14.936,33.333 33.333,33.333l2166.67,-0c18.397,-0 33.333,-14.936 33.333,-33.333l0,-1375Z"/></clipPath><g clip-path="url(#_clip2)"><g><rect x="72.917" y="77.083" width="2279.17" height="245.833" style="fill:#5267df;"/><g><circle cx="247.917" cy="202.083" r="66.667" style="fill:#fff;fill-opacity:0.25;"/><circle cx="2168.75" cy="202.083" r="66.667" style="fill:#fff;fill-opacity:0.1;"/><g><path d="M877.083,172.917c0,-6.899 -5.601,-12.5 -12.5,-12.5l-475,-0c-6.899,-0 -12.5,5.601 -12.5,12.5c0,6.899 5.601,12.5 12.5,12.5l475,-0c6.899,-0 12.5,-5.601 12.5,-12.5Z" style="fill:#fff;fill-opacity:0.75;"/><path d="M643.75,231.25c0,-6.899 -5.601,-12.5 -12.5,-12.5l-241.667,0c-6.899,0 -12.5,5.601 -12.5,12.5c0,6.899 5.601,12.5 12.5,12.5l241.667,0c6.899,0 12.5,-5.601 12.5,-12.5Z" style="fill:#fff;fill-opacity:0.25;"/></g></g></g></g><g><path d="M325.125,1522.1l1087.5,-0l0,-1020.83c0,-18.398 -14.936,-33.334 -33.333,-33.334l-1020.83,0c-18.397,0 -33.333,14.936 -33.333,33.334l0,1020.83Z" style="fill:#fff;"/><path d="M1554.29,1522.1l533.333,-0l0,-1020.83c0,-18.398 -14.936,-33.334 -33.333,-33.334l-466.667,0c-18.397,0 -33.333,14.936 -33.333,33.334l-0,1020.83Z" style="fill:#fff;"/><path d="M1152.08,639.583c0,-6.899 -5.601,-12.5 -12.5,-12.5l-475,0c-6.899,0 -12.5,5.601 -12.5,12.5c0,6.899 5.601,12.5 12.5,12.5l475,0c6.899,0 12.5,-5.601 12.5,-12.5Z" style="fill:#242a45;fill-opacity:0.5;"/></g></g></g><g><g><circle cx="522.917" cy="668.75" r="66.667" style="fill:#f98e5d;"/><path d="M2006.25,572.917c0,-6.899 -5.601,-12.5 -12.5,-12.5l-341.667,-0c-6.899,-0 -12.5,5.601 -12.5,12.5c0,6.899 5.601,12.5 12.5,12.5l341.667,-0c6.899,-0 12.5,-5.601 12.5,-12.5Z" style="fill:#242a45;fill-opacity:0.25;"/><path d="M2006.25,656.25c0,-6.899 -5.601,-12.5 -12.5,-12.5l-341.667,0c-6.899,0 -12.5,5.601 -12.5,12.5c0,6.899 5.601,12.5 12.5,12.5l341.667,0c6.899,0 12.5,-5.601 12.5,-12.5Z" style="fill:#242a45;fill-opacity:0.25;"/><path d="M2006.25,739.583c0,-6.899 -5.601,-12.5 -12.5,-12.5l-341.667,0c-6.899,0 -12.5,5.601 -12.5,12.5c0,6.899 5.601,12.5 12.5,12.5l341.667,0c6.899,0 12.5,-5.601 12.5,-12.5Z" style="fill:#242a45;fill-opacity:0.25;"/><path d="M2006.25,822.917c0,-6.899 -5.601,-12.5 -12.5,-12.5l-341.667,-0c-6.899,-0 -12.5,5.601 -12.5,12.5c0,6.899 5.601,12.5 12.5,12.5l341.667,-0c6.899,-0 12.5,-5.601 12.5,-12.5Z" style="fill:#242a45;fill-opacity:0.25;"/><path d="M2006.25,964.583c0,-6.899 -5.601,-12.5 -12.5,-12.5l-341.667,0c-6.899,0 -12.5,5.601 -12.5,12.5c0,6.899 5.601,12.5 12.5,12.5l341.667,0c6.899,0 12.5,-5.601 12.5,-12.5Z" style="fill:#242a45;fill-opacity:0.25;"/><path d="M2006.25,1047.92c0,-6.899 -5.601,-12.5 -12.5,-12.5l-341.667,-0c-6.899,-0 -12.5,5.601 -12.5,12.5c0,6.899 5.601,12.5 12.5,12.5l341.667,-0c6.899,-0 12.5,-5.601 12.5,-12.5Z" style="fill:#242a45;fill-opacity:0.25;"/><path d="M2006.25,1131.25c0,-6.899 -5.601,-12.5 -12.5,-12.5l-341.667,0c-6.899,0 -12.5,5.601 -12.5,12.5c0,6.899 5.601,12.5 12.5,12.5l341.667,0c6.899,0 12.5,-5.601 12.5,-12.5Z" style="fill:#242a45;fill-opacity:0.25;"/><path d="M918.75,697.917c0,-6.899 -5.601,-12.5 -12.5,-12.5l-241.667,-0c-6.899,-0 -12.5,5.601 -12.5,12.5c0,6.899 5.601,12.5 12.5,12.5l241.667,-0c6.899,-0 12.5,-5.601 12.5,-12.5Z" style="fill:#242a45;fill-opacity:0.25;"/></g><g><circle cx="522.917" cy="902.083" r="66.667" style="fill:#6ac6d6;"/><path d="M1152.08,872.917c0,-6.899 -5.601,-12.5 -12.5,-12.5l-475,-0c-6.899,-0 -12.5,5.601 -12.5,12.5c0,6.899 5.601,12.5 12.5,12.5l475,-0c6.899,-0 12.5,-5.601 12.5,-12.5Z" style="fill:#242a45;fill-opacity:0.5;"/><path d="M918.75,931.25c0,-6.899 -5.601,-12.5 -12.5,-12.5l-241.667,0c-6.899,0 -12.5,5.601 -12.5,12.5c0,6.899 5.601,12.5 12.5,12.5l241.667,0c6.899,0 12.5,-5.601 12.5,-12.5Z" style="fill:#242a45;fill-opacity:0.25;"/></g><g><circle cx="522.917" cy="1135.42" r="66.667" style="fill:#a47ed4;"/><path d="M1152.08,1106.25c0,-6.899 -5.601,-12.5 -12.5,-12.5l-475,0c-6.899,0 -12.5,5.601 -12.5,12.5c0,6.899 5.601,12.5 12.5,12.5l475,0c6.899,0 12.5,-5.601 12.5,-12.5Z" style="fill:#242a45;fill-opacity:0.5;"/><path d="M918.75,1164.58c0,-6.899 -5.601,-12.5 -12.5,-12.5l-241.667,0c-6.899,0 -12.5,5.601 -12.5,12.5c0,6.899 5.601,12.5 12.5,12.5l241.667,0c6.899,0 12.5,-5.601 12.5,-12.5Z" style="fill:#242a45;fill-opacity:0.25;"/></g><g><circle cx="522.917" cy="1368.75" r="66.667" style="fill:#ec7878;"/><path d="M1152.08,1339.58c0,-6.899 -5.601,-12.5 -12.5,-12.5l-475,0c-6.899,0 -12.5,5.601 -12.5,12.5c0,6.899 5.601,12.5 12.5,12.5l475,0c6.899,0 12.5,-5.601 12.5,-12.5Z" style="fill:#242a45;fill-opacity:0.5;"/><path d="M918.75,1397.92c0,-6.899 -5.601,-12.5 -12.5,-12.5l-241.667,-0c-6.899,-0 -12.5,5.601 -12.5,12.5c0,6.899 5.601,12.5 12.5,12.5l241.667,-0c6.899,-0 12.5,-5.601 12.5,-12.5Z" style="fill:#242a45;fill-opacity:0.25;"/></g></g></g><defs><linearGradient id="_Linear1" x1="0" y1="0" x2="1" y2="0" gradientUnits="userSpaceOnUse" gradientTransform="matrix(-2308.14,-678.781,678.781,-2308.14,2212.76,1109.17)"><stop offset="0" style="stop-color:#151515;stop-opacity:1"/><stop offset="1" style="stop-color:#3d3d3d;stop-opacity:1"/></linearGradient></defs></svg>